<svg width="1122" height="1122" viewBox="0 0 1122 1122" fill="none" xmlns="http://www.w3.org/2000/svg">
<circle cx="561" cy="561" r="561" fill="url(#paint0_linear)"/>
<mask id="mask0" mask-type="alpha" maskUnits="userSpaceOnUse" x="221" y="160" width="679" height="679">
<path d="M560.5 492.71C553.031 492.71 546.92 486.599 546.92 479.13V451.97H519.76C512.291 451.97 506.18 445.859 506.18 438.39C506.18 430.921 512.291 424.81 519.76 424.81H580.87C592.073 424.81 601.24 415.644 601.24 404.44C601.24 393.237 592.073 384.07 580.87 384.07H540.13C513.921 384.07 492.6 362.75 492.6 336.54C492.6 310.331 513.921 289.01 540.13 289.01H546.92V261.85C546.92 254.381 553.031 248.27 560.5 248.27C567.969 248.27 574.08 254.381 574.08 261.85V289.01H601.24C608.709 289.01 614.82 295.121 614.82 302.59C614.82 310.059 608.709 316.17 601.24 316.17H540.13C528.926 316.17 519.76 325.337 519.76 336.54C519.76 347.744 528.926 356.91 540.13 356.91H580.87C607.079 356.91 628.4 378.231 628.4 404.44C628.4 430.65 607.079 451.97 580.87 451.97H574.08V479.13C574.08 486.599 567.969 492.71 560.5 492.71ZM866.05 791.47C866.05 798.939 859.939 805.05 852.47 805.05H655.56H560.5H465.44H268.53C261.061 805.05 254.95 798.939 254.95 791.47C254.95 784.001 261.061 777.89 268.53 777.89H388.781C361.01 755.483 343.22 721.194 343.22 682.83V628.51C343.22 621.041 349.331 614.93 356.8 614.93H451.86C490.223 614.93 524.513 632.72 546.92 660.491V546.419C455.934 539.493 383.96 463.242 383.96 370.49C383.96 273.122 463.131 193.95 560.5 193.95C657.869 193.95 737.04 273.122 737.04 370.49C737.04 463.242 665.066 539.493 574.08 546.487V660.559C596.487 632.72 630.776 614.93 669.14 614.93H764.2C771.669 614.93 777.78 621.041 777.78 628.51V682.83C777.78 721.194 759.99 755.483 732.219 777.89H852.47C859.939 777.89 866.05 784.001 866.05 791.47ZM560.5 519.87C642.863 519.87 709.88 452.853 709.88 370.49C709.88 288.128 642.863 221.11 560.5 221.11C478.137 221.11 411.12 288.128 411.12 370.49C411.12 452.853 478.137 519.87 560.5 519.87ZM465.44 777.89H546.92V737.15C546.92 684.731 504.279 642.09 451.86 642.09H370.38V682.83C370.38 735.249 413.021 777.89 465.44 777.89ZM655.56 777.89C707.979 777.89 750.62 735.249 750.62 682.83V642.09H669.14C616.721 642.09 574.08 684.731 574.08 737.15V777.89H655.56Z" fill="black"/>
</mask>
<g mask="url(#mask0)">
<circle cx="561.5" cy="560.5" r="629.183" fill="white"/>
</g>
<defs>
<linearGradient id="paint0_linear" x1="136" y1="-4.68771e-06" x2="1003.5" y2="1076.5" gradientUnits="userSpaceOnUse">
<stop stop-color="#FAFF13"/>
<stop offset="1" stop-color="#05400F"/>
</linearGradient>
</defs>
</svg>
