<svg width="546" height="546" viewBox="0 0 546 546" fill="none" xmlns="http://www.w3.org/2000/svg">
<circle cx="273" cy="273" r="273" fill="#1EB698"/>
<path d="M304.21 337.601C218.417 266.849 122.596 293.59 68 340.386C68 340.386 94.743 346.467 112.011 348.186C133.255 350.3 145.332 352.434 166.607 350.971C180.391 350.023 187.913 345.675 201.704 344.843C225.628 343.4 239.018 348.186 262.985 348.186C279.698 348.186 304.21 337.601 304.21 337.601Z" fill="#EAEAEC"/>
<path fill-rule="evenodd" clip-rule="evenodd" d="M343.783 280.666C342.905 252.278 342.136 227.391 359.92 200.539C368.834 187.082 399.809 157.197 441.257 162.1C450.442 156.697 466.439 172.778 469.937 176.294C470.046 176.403 470.142 176.5 470.226 176.584C469.112 182.155 472.455 191.626 477.469 201.097C479.14 204.253 473.569 207.782 470.226 207.225C468.313 206.906 464.954 203.905 461.701 200.999C460.408 199.844 459.132 198.705 457.97 197.754C457.524 199.316 458.239 201.324 458.935 203.279C459.977 206.204 460.976 209.008 457.97 210.01C455.742 210.753 451.285 211.681 437.357 192.183C418.416 176.584 382.103 201.097 378.862 218.924C373.291 243.993 371.7 266.834 395.018 334.243C386.373 341.696 376.93 339.259 367.201 336.747C358.75 334.565 350.083 332.328 341.536 336.472C344.87 315.842 344.307 297.629 343.783 280.666ZM465.212 187.184C465.016 183.141 462.351 181.056 458.527 181.056C465.77 177.713 467.998 182.727 465.212 187.184Z" fill="#EAEAEC"/>
<path d="M54 345C49.6 339.8 61.3333 334.833 67 332.5C61.1667 333.667 51.5 336.7 49.5 341.5C44.0833 354.5 88.2548 356.424 95 357C83.1666 355.167 58.4 350.2 54 345Z" fill="#EAEAEC"/>
<path d="M311 339.5C315.4 334.3 303.667 329.333 298 327C303.833 328.167 313.5 331.2 315.5 336C320.917 349 277.245 355.924 270.5 356.5C282.333 354.667 306.6 344.7 311 339.5Z" fill="#EAEAEC"/>
<path d="M399 336.5C403.4 331.3 390.5 332 383 331.5C389.5 330.5 399.5 330 401 331.5C410.958 341.458 377 347 370.5 342.5C382.5 344.5 394.6 341.7 399 336.5Z" fill="#EAEAEC"/>
<path d="M335.5 338.5C335.5 338.053 334.5 336.5 339.5 334.5C334 334.5 332.5 336.947 332.5 338C332.5 349.5 348.5 335 356 336.947C346 333.5 338.684 344.053 335.5 338.5Z" fill="#EAEAEC"/>
<path d="M189 359C181.26 362.87 160.5 367.5 149 362.114C159.333 369.281 179.119 369.043 191.5 362.114C206 354 217.5 359 227 359C216 354.5 199 354 189 359Z" fill="#EAEAEC"/>
</svg>
